:version 1.10
:name ASF
:units
  mass 1
  length 1
  angle deg
:documentation
  ASF file generated by Kaydara
:root
  axis xyz
  order  tx ty tz rx ry rz
  position 0 0 0
  orientation 0 0 0
:bonedata
  begin
    id 1
    name RightUpLegDummy
    direction -1 2.30186e-007 8.31532e-007
    length 4.46685
    axis 0 0 0 xyz
  end
  begin
    id 2
    name RightUpLeg
    direction -2.30187e-007 -1 1.24343e-010
    length 16.4045
    axis -3.49089 -0.000906625 0.000286804 xyz
    dof rx ry rz
  end
  begin
    id 3
    name RightLeg
    direction -2.30181e-007 -1 -4.17157e-009
    length 17.5097
    axis 3.68512 0.0193738 -0.131023 xyz
    dof rx ry rz
  end
  begin
    id 4
    name RightFoot
    direction 8.31421e-007 -4.51202e-011 1
    length 6.49508
    axis 4.81691e-005 -0.120479 -0.188788 xyz
    dof rx ry rz
  end
  begin
    id 5
    name RightToes
    direction 0.00124746 -0.014064 0.9999
    length 3.85082
    axis 0.000481921 0.542163 -0.142578 xyz
    dof rx ry rz
  end
  begin
    id 6
    name SpineDummy
    direction 0.0717043 0.9409 -0.331007
    length 10.0032
    axis 0 0 0 xyz
  end
  begin
    id 7
    name Spine
    direction 2.30186e-007 1 4.58806e-011
    length 9.84055
    axis -0.001389 0.000121418 2.40972e-006 xyz
    dof rx ry rz
  end
  begin
    id 8
    name Spine1
    direction 0 0 0
    length 0
    axis -0.001389 0.000121451 1.30017e-006 xyz
    dof rx ry rz
  end
  begin
    id 9
    name HEadDummy
    direction -0.00347485 0.950688 -0.310128
    length 8.00997
    axis -0.001389 0.000121451 1.30017e-006 xyz
  end
  begin
    id 10
    name HEad
    direction -0.0222688 0.980941 0.193023
    length 5.12695
    axis -0.001389 0.000121451 1.30017e-006 xyz
    dof rx ry rz
  end
  begin
    id 11
    name LeftShoulder1Dummy
    direction 0.988871 0.146793 -0.0242004
    length 3.5792
    axis -0.001389 0.000121451 1.30017e-006 xyz
  end
  begin
    id 12
    name LeftShoulder1
    direction 0.993832 0.108932 0.020779
    length 4.16823
    axis -0.001389 0.000121451 1.30017e-006 xyz
    dof rx ry rz
  end
  begin
    id 13
    name LeftArm
    direction 1 3.44807e-006 -8.31404e-007
    length 9.91437
    axis -23.1894 0.134784 0.967509 xyz
    dof rx ry rz
  end
  begin
    id 14
    name LeftForeArm
    direction 1 3.44842e-006 -8.31581e-007
    length 9.08575
    axis -9.91835 -0.06569 -0.177793 xyz
    dof rx ry rz
  end
  begin
    id 15
    name LeftHand
    direction 0.992938 -0.0411636 0.11126
    length 5.32135
    axis -0.00960232 -0.00340091 0.185173 xyz
    dof rx ry rz
  end
  begin
    id 16
    name RightShoulderDummy
    direction -0.988871 0.146793 -0.0241962
    length 3.5792
    axis -0.001389 0.000121451 1.30017e-006 xyz
  end
  begin
    id 17
    name RightShoulder
    direction -0.993832 0.108933 0.0207785
    length 4.16823
    axis 0.215806 0.000203643 -0.0068026 xyz
    dof rx ry rz
  end
  begin
    id 18
    name RightArm
    direction -1 3.90912e-006 8.31284e-007
    length 9.91437
    axis -23.2009 -0.134239 -0.964101 xyz
    dof rx ry rz
  end
  begin
    id 19
    name RightForeArm
    direction -1 3.90882e-006 8.31502e-007
    length 9.08575
    axis -9.92322 0.0658061 0.178867 xyz
    dof rx ry rz
  end
  begin
    id 20
    name RightHand
    direction -0.992843 -0.0414603 0.112003
    length 5.28593
    axis -0.00960638 0.00330671 -0.185228 xyz
    dof rx ry rz
  end
  begin
    id 21
    name LeftUpLegDummy
    direction 1 -2.30186e-007 -8.31532e-007
    length 4.46685
    axis 0 0 0 xyz
  end
  begin
    id 22
    name LeftUpLeg
    direction -2.30187e-007 -1 6.00931e-010
    length 16.4045
    axis -3.48766 0.00143442 -0.000524262 xyz
    dof rx ry rz
  end
  begin
    id 23
    name LeftLeg
    direction -2.30187e-007 -1 1.6669e-009
    length 17.5097
    axis 3.68178 -0.00654042 -0.000285133 xyz
    dof rx ry rz
  end
  begin
    id 24
    name LeftFoot
    direction 8.31532e-007 -4.54478e-011 1
    length 6.49508
    axis 1.87233e-006 4.66016e-005 -8.6538e-006 xyz
    dof rx ry rz
  end
  begin
    id 25
    name LeftToes
    direction 0.00818058 -0.00485161 0.999955
    length 3.85048
    axis 1.06247e-005 4.65869e-005 -8.65513e-006 xyz
    dof rx ry rz
  end
:hierarchy
  begin
    root RightUpLegDummy SpineDummy LeftUpLegDummy
    RightUpLegDummy RightUpLeg
    RightUpLeg RightLeg
    RightLeg RightFoot
    RightFoot RightToes
    SpineDummy Spine
    Spine Spine1
    Spine1 HEadDummy LeftShoulder1Dummy RightShoulderDummy
    HEadDummy HEad
    LeftShoulder1Dummy LeftShoulder1
    LeftShoulder1 LeftArm
    LeftArm LeftForeArm
    LeftForeArm LeftHand
    RightShoulderDummy RightShoulder
    RightShoulder RightArm
    RightArm RightForeArm
    RightForeArm RightHand
    LeftUpLegDummy LeftUpLeg
    LeftUpLeg LeftLeg
    LeftLeg LeftFoot
    LeftFoot LeftToes
  end

:SAMPLES-PER-SECOND 30
:FULLY-SPECIFIED
:DEGREES
162
root  -37.6427 32.0812 -61.1078 8.32214 -48.3867 -7.39615
RightUpLeg  0.212393 -13.2349 4.628
RightLeg  54.6868 8.03852 9.74294
RightFoot  14.0927 -0.33711 3.10419
RightToes  -51.9931 -0.320656 -0.372387
Spine  4.29145 -0.589001 -0.577172
Spine1  8.43864 -0.939171 -1.45204
HEad  9.81161 52.9823 -10.0007
LeftShoulder1  0 -2.42657e-020 -4.95415e-022
LeftArm  -16.2241 33.0002 -79.5954
LeftForeArm  44.7618 -58.3107 -16.6429
LeftHand  0.109151 -9.41634 -1.69645
RightShoulder  0 2.42657e-020 1.07489e-018
RightArm  -14.4257 -17.4406 81.3531
RightForeArm  40.9866 45.3712 10.2956
RightHand  -0.937849 22.5217 -4.33887
LeftUpLeg  -21.6814 9.46743 -15.4446
LeftLeg  28.27 5.18826 2.36604
LeftFoot  -10.6254 -0.0956104 -1.02815
LeftToes  30.9245 9.37529e-007 1.1992e-007
163
root  -39.5034 31.2434 -60.5253 4.22919 -46.1148 -4.75114
RightUpLeg  -2.82384 -12.5714 0.559217
RightLeg  64.319 2.38807 4.1207
RightFoot  10.2793 -0.0430119 0.855689
RightToes  -46.4476 -0.271928 -0.348572
Spine  4.87083 -0.876811 -1.31081
Spine1  9.52998 -1.41409 -2.96547
HEad  5.84472 52.8635 -12.2526
LeftShoulder1  0 -2.42657e-020 -4.95415e-022
LeftArm  -13.656 28.5282 -77.2216
LeftForeArm  41.9979 -53.97 -14.0571
LeftHand  0.180826 -9.15708 -2.62969
RightShoulder  0 2.42657e-020 1.07489e-018
RightArm  -15.4606 -16.4524 81.6056
RightForeArm  41.1073 43.9329 9.78296
RightHand  -1.23704 22.5383 -5.83397
LeftUpLeg  -21.73 5.43643 -15.5009
LeftLeg  39.1984 6.444 4.57467
LeftFoot  -17.9068 -0.380328 -2.41366
LeftToes  27.9591 9.37529e-007 1.1992e-007
164
root  -41.0834 30.7642 -59.991 1.45715 -44.4921 -2.07722
RightUpLeg  -8.9047 -8.96304 -2.51635
RightLeg  72.4754 -2.00884 -5.36034
RightFoot  5.97802 0.0502612 -0.584934
RightToes  -33.8161 -0.171063 -0.277595
Spine  5.17844 -0.710361 -2.24413
Spine1  10.0886 -1.01336 -4.75507
HEad  4.51797 52.2334 -12.1608
LeftShoulder1  0 -2.42657e-020 -4.95415e-022
LeftArm  -12.856 22.2228 -76.1922
LeftForeArm  43.4626 -46.9566 -10.8834
LeftHand  0.284009 -10.2056 -3.55205
RightShoulder  0 2.42657e-020 1.07489e-018
RightArm  -18.3192 -15.6857 82.7217
RightForeArm  45.2524 40.7033 8.71407
RightHand  -1.73087 22.9676 -8.137
LeftUpLeg  -20.6031 5.25907 -16.0373
LeftLeg  44.2182 5.26293 4.47915
LeftFoot  -22.1604 -0.507027 -2.58866
LeftToes  27.4641 9.37529e-007 1.1992e-007
165
root  -42.5677 30.6759 -59.5693 0.835205 -41.581 -1.59038
RightUpLeg  -15.3581 -5.58687 -3.60765
RightLeg  76.4499 -3.64803 -11.8472
RightFoot  0.281397 0.00103826 -0.0451403
RightToes  -22.2238 -0.0941993 -0.194457
Spine  5.40992 -0.809508 -2.44766
Spine1  10.5536 -1.24195 -5.09655
HEad  4.31145 51.6498 -12.0707
LeftShoulder1  0 -2.42657e-020 -4.95415e-022
LeftArm  -14.8811 17.2811 -77.6566
LeftForeArm  49.5995 -42.0192 -9.12082
LeftHand  0.34518 -11.0423 -3.94229
RightShoulder  0 2.42657e-020 1.07489e-018
RightArm  -20.7413 -16.5445 82.4074
RightForeArm  47.9259 40.8794 8.76443
RightHand  -1.71637 23.4273 -7.89644
LeftUpLeg  -18.4762 2.51597 -15.0157
LeftLeg  46.0909 5.15448 4.68484
LeftFoot  -24.3 -0.615215 -2.85699
LeftToes  25.0991 9.37529e-007 1.1992e-007
166
root  -44.0148 30.9945 -59.1595 0.879395 -37.5638 -1.71774
RightUpLeg  -20.6346 -3.41437 -4.6776
RightLeg  74.8935 -3.77654 -11.1827
RightFoot  -3.34 0.00974616 0.711981
RightToes  -20.4395 -0.0839223 -0.180346
Spine  5.638 -1.30804 -2.28745
Spine1  11.0337 -2.30574 -4.76981
HEad  4.03307 51.5722 -13.0626
LeftShoulder1  0 -2.42657e-020 -4.95415e-022
LeftArm  -16.9196 14.4364 -80.1007
LeftForeArm  49.9288 -39.9927 -8.48198
LeftHand  0.208258 -11.066 -2.52112
RightShoulder  0 2.42657e-020 1.07489e-018
RightArm  -21.5564 -18.2533 81.1276
RightForeArm  46.5242 42.8471 9.40433
RightHand  -1.52059 24.1528 -6.73022
LeftUpLeg  -15.0715 -0.735011 -13.309
LeftLeg  44.6625 4.687 4.05402
LeftFoot  -24.4744 -0.555523 -2.56094
LeftToes  23.0925 9.37529e-007 1.1992e-007
167
root  -45.5334 31.6027 -58.7363 1.09387 -33.3645 -2.2784
RightUpLeg  -23.9923 -1.85878 -5.27964
RightLeg  68.7115 -4.72509 -10.1747
RightFoot  -4.4335 0.0194932 0.881268
RightToes  -22.0472 -0.0931625 -0.193075
Spine  5.78185 -1.79873 -1.96423
Spine1  11.3459 -3.38091 -4.12376
HEad  4.41322 51.8585 -13.7139
LeftShoulder1  0 -2.42657e-020 -4.95415e-022
LeftArm  -17.5546 13.1709 -82.4174
LeftForeArm  47.3959 -39.9356 -8.46938
LeftHand  0.106612 -10.2577 -1.55876
RightShoulder  0 2.42657e-020 1.07489e-018
RightArm  -21.6908 -20.8117 79.884
RightForeArm  45.6426 45.3472 10.2795
RightHand  -1.35905 24.2048 -5.96346
LeftUpLeg  -10.7262 -3.78688 -10.832
LeftLeg  41.0183 3.66463 2.78578
LeftFoot  -22.7327 -0.356448 -1.77303
LeftToes  18.5171 9.37529e-007 1.1992e-007
168
root  -47.0453 32.3161 -58.3175 1.7804 -28.8804 -2.7468
RightUpLeg  -25.9485 -1.56773 -5.96333
RightLeg  58.884 -7.02934 -10.0593
RightFoot  -5.25092 0.034799 1.13658
RightToes  -22.3234 -0.094786 -0.195236
Spine  5.69827 -2.26664 -1.75401
Spine1  11.2183 -4.40216 -3.7109
HEad  5.54458 51.9223 -12.752
LeftShoulder1  0 -2.42657e-020 -4.95415e-022
LeftArm  -17.8501 12.964 -84.3238
LeftForeArm  44.522 -41.5609 -8.982
LeftHand  0.170997 -10.0355 -2.31892
RightShoulder  0 2.42657e-020 1.07489e-018
RightArm  -23.2264 -24.1596 79.9155
RightForeArm  45.3009 48.395 11.4607
RightHand  -1.31792 24.2954 -5.74856
LeftUpLeg  -6.71889 -6.74843 -8.16288
LeftLeg  36.0397 2.34587 1.48093
LeftFoot  -19.5913 -0.160479 -0.92948
LeftToes  13.4054 9.37529e-007 1.1992e-007
169
root  -48.5234 32.9673 -57.8861 2.75708 -24.1701 -2.82642
RightUpLeg  -26.1989 -2.39349 -7.24102
RightLeg  45.2574 -8.35489 -7.3728
RightFoot  -5.61363 0.0355227 1.10222
RightToes  -25.5335 -0.114404 -0.219756
Spine  5.44953 -2.66792 -1.62485
Spine1  10.7644 -5.28344 -3.43763
HEad  6.56697 51.2325 -11.492
LeftShoulder1  0 -2.42657e-020 -4.95415e-022
LeftArm  -16.5092 13.4516 -85.6003
LeftForeArm  42.1182 -44.1275 -9.84424
LeftHand  0.216438 -9.74142 -2.9115
RightShoulder  0 2.42657e-020 1.07489e-018
RightArm  -25.814 -27.9374 80.7141
RightForeArm  45.8472 52.1805 13.1503
RightHand  -1.26488 24.335 -5.49289
LeftUpLeg  -3.62965 -9.41103 -5.542
LeftLeg  30.841 0.456726 0.230472
LeftFoot  -15.8772 -0.0205384 -0.147293
LeftToes  8.32797 9.37529e-007 1.1992e-007
170
root  -49.9684 33.3957 -57.437 3.78363 -19.102 -2.15543
RightUpLeg  -24.9996 -5.23264 -9.12285
RightLeg  29.3449 -8.79722 -4.20778
RightFoot  -5.67558 0.0300225 0.983331
RightToes  -30.2973 -0.145974 -0.254027
Spine  5.12824 -3.11078 -1.73605
Spine1  10.1947 -6.20061 -3.66173
HEad  7.08994 49.7474 -10.31
LeftShoulder1  0 -2.42657e-020 -4.95415e-022
LeftArm  -14.7839 14.2866 -86.191
LeftForeArm  42.5552 -47.351 -11.039
LeftHand  0.280028 -10.1173 -3.53498
RightShoulder  0 2.42657e-020 1.07489e-018
RightArm  -28.6713 -31.7512 82.1789
RightForeArm  47.1253 56.3689 15.4109
RightHand  -1.15937 24.2033 -5.03469
LeftUpLeg  -1.87885 -11.1981 -3.11071
LeftLeg  26.6828 -2.65616 -1.13022
LeftFoot  -12.3331 0.0648006 0.599744
LeftToes  2.57221 9.37529e-007 1.1992e-007
171
root  -51.3818 33.5071 -56.9608 4.73511 -13.7192 -0.61792
RightUpLeg  -23.2985 -9.1356 -11.737
RightLeg  14.798 -7.15773 -1.40031
RightFoot  -3.47715 0.00240685 0.456935
RightToes  -34.8302 -0.178557 -0.284096
Spine  4.82819 -3.56936 -2.09007
Spine1  9.69199 -7.09987 -4.37794
HEad  6.94312 47.5719 -9.78094
LeftShoulder1  0 -2.42657e-020 -4.95415e-022
LeftArm  -13.0431 15.2105 -86.2213
LeftForeArm  44.986 -50.8912 -12.5372
LeftHand  0.351242 -10.8409 -4.07291
RightShoulder  0 2.42657e-020 1.07489e-018
RightArm  -31.2864 -35.1902 83.7798
RightForeArm  48.5792 60.4902 18.2177
RightHand  -1.0351 24.2296 -4.45064
LeftUpLeg  -1.34238 -12.8997 -1.36124
LeftLeg  24.128 -6.17459 -2.29918
LeftFoot  -10.0507 0.099569 1.13226
LeftToes  -1.71397 9.37529e-007 1.1992e-007
172
root  -52.8146 33.3531 -56.4984 5.64587 -8.55873 0.977554
RightUpLeg  -21.7158 -8.87656 -15.5704
RightLeg  5.30852 -3.97947 -0.111148
RightFoot  -2.02065 -0.00385425 0.159051
RightToes  -33.5585 -0.169177 -0.275922
Spine  4.57313 -3.76991 -2.42861
Spine1  9.24408 -7.48337 -5.03939
HEad  7.03329 44.8493 -9.29894
LeftShoulder1  0 -2.42657e-020 -4.95415e-022
LeftArm  -10.9299 15.5226 -86.0362
LeftForeArm  47.2338 -53.1354 -13.615
LeftHand  0.363938 -11.3184 -4.0438
RightShoulder  0 2.42657e-020 1.07489e-018
RightArm  -33.136 -38.0188 84.7496
RightForeArm  49.429 63.3753 20.6871
RightHand  -1.00728 24.246 -4.31796
LeftUpLeg  -1.98224 -15.5081 0.154907
LeftLeg  23.8318 -8.15285 -2.98164
LeftFoot  -9.28978 0.112671 1.3867
LeftToes  -7.07317 9.37529e-007 1.1992e-007
173
root  -54.3163 32.9513 -56.1396 6.21069 -2.77516 1.53529
RightUpLeg  -21.5292 -8.23881 -17.8633
RightLeg  4.95869 0.101822 0.00344429
RightFoot  -1.9023 -0.00589906 0.0222404
RightToes  -36.0625 -0.187817 -0.291817
Spine  4.58774 -3.91905 -2.39193
Spine1  9.27149 -7.81069 -4.93589
HEad  6.99787 41.5947 -9.04554
LeftShoulder1  0 -2.42657e-020 -4.95415e-022
LeftArm  -8.92913 14.4726 -86.1115
LeftForeArm  47.7867 -53.3345 -13.7156
LeftHand  0.396368 -11.6014 -4.27269
RightShoulder  0 2.42657e-020 1.07489e-018
RightArm  -33.8843 -39.3833 84.5125
RightForeArm  48.6232 64.243 21.5411
RightHand  -1.08619 24.051 -4.72693
LeftUpLeg  -4.19107 -18.955 2.9676
LeftLeg  26.7825 -9.57872 -4.06321
LeftFoot  -10.3899 0.169485 1.86399
LeftToes  -14.2748 9.37529e-007 1.1992e-007
174
root  -56.0826 32.4153 -55.6998 5.80737 1.5929 0.807129
RightUpLeg  -22.5042 -8.2706 -16.7355
RightLeg  11.3119 4.51787 0.605983
RightFoot  -1.50125 -0.00618827 -0.0948219
RightToes  -45.0523 -0.260048 -0.341847
Spine  5.11002 -3.49939 -2.01444
Spine1  10.2189 -7.03542 -4.09704
HEad  5.66317 38.2338 -9.74298
LeftShoulder1  0 -2.42657e-020 -4.95415e-022
LeftArm  -8.19469 12.2305 -86.7638
LeftForeArm  47.1315 -51.4568 -12.7954
LeftHand  0.381448 -11.6498 -4.11018
RightShoulder  0 2.42657e-020 1.07489e-018
RightArm  -33.1337 -38.1373 82.828
RightForeArm  44.8261 61.9216 19.3878
RightHand  -1.09859 23.7401 -4.85452
LeftUpLeg  -5.02747 -20.5587 7.46995
LeftLeg  28.9354 -11.5784 -5.41188
LeftFoot  -12.0902 0.283169 2.67345
LeftToes  -22.4647 9.37529e-007 1.1992e-007
175
root  -57.8302 31.9419 -55.3087 4.87292 5.34901 -0.018631
RightUpLeg  -25.9308 -11.5487 -13.9108
RightLeg  21.4545 6.47325 2.06812
RightFoot  4.42098 -0.0050361 0.507939
RightToes  -50.0201 -0.303057 -0.364455
Spine  5.82201 -3.01488 -1.65142
Spine1  11.5164 -6.14088 -3.27006
HEad  3.26962 35.6431 -10.7473
LeftShoulder1  0 -2.42657e-020 -4.95415e-022
LeftArm  -9.58561 9.19411 -87.9694
LeftForeArm  46.1165 -46.6117 -10.746
LeftHand  0.296066 -11.5016 -3.31109
RightShoulder  0 2.42657e-020 1.07489e-018
RightArm  -31.0912 -33.0176 80.1834
RightForeArm  38.7567 53.7872 13.9726
RightHand  -0.934971 23.5453 -4.11503
LeftUpLeg  -5.6507 -23.6539 11.4705
LeftLeg  30.8047 -11.3705 -5.77032
LeftFoot  -13.2046 0.335193 2.89536
LeftToes  -28.3177 9.37529e-007 1.1992e-007
